# xmcd CD database file
#
# Track frame offsets:
#	150
#	21859
#	40346
#	61063
#	86015
#	106039
#	125050
#	146235
#	167507
#	188634
#	213626
#	232003
#	256145
#	274899
#	292549
#	311516
#	332267
#
# Disc length: 4669 seconds
#
# Revision: 4
# Processed by: cddbd v1.5PL3 Copyright (c) Steve Scherf et al.
# Submitted via: CDex 1.50beta10
#
DISCID=eb123b11
DTITLE=Celine Dion - All The Way....A Dacade Of Song
DYEAR=1999
DGENRE=Pop
TTITLE0=The Power Of Love
TTITLE1=Beauty And The Beast - (with Peabo Bryson) 
TTITLE2=Because You Loved Me
TTITLE3=It's All Coming Back To Me Now
TTITLE4=All By Myself
TTITLE5=Immortality
TTITLE6=To Love You More
TTITLE7=My Heart Will Go On
TTITLE8=Be The Man(On This Night)
TTITLE9=I'm Your Angel - (with R. Kelly) 
TTITLE10=That's The Way It Is
TTITLE11=If Walls Could Talk
TTITLE12=The First Time Ever I Saw Your Face
TTITLE13=Celine Dion with Frank Sintra - All The Way
TTITLE14=Then You Look At Me
TTITLE15=I Want You To Need Me
TTITLE16=Live
EXTD=YEAR: 1999
EXTT0=
EXTT1=
EXTT2=
EXTT3=
EXTT4=
EXTT5=
EXTT6=
EXTT7=
EXTT8=
EXTT9=
EXTT10=
EXTT11=
EXTT12=
EXTT13=
EXTT14=
EXTT15=
EXTT16=
PLAYORDER=
